<?xml version="1.0" encoding="UTF-8" standalone="no"?>
<!DOCTYPE svg PUBLIC "-//W3C//DTD SVG 1.1//EN"
 "http://www.w3.org/Graphics/SVG/1.1/DTD/svg11.dtd">
<!-- Generated by graphviz version 8.1.0 (20230707.0739)
 -->
<!-- Title: dependency&#45;cruiser output Pages: 1 -->
<svg width="1176pt" height="963pt"
 viewBox="0.00 0.00 1176.00 963.25" xmlns="http://www.w3.org/2000/svg" xmlns:xlink="http://www.w3.org/1999/xlink">
<g id="graph0" class="graph" transform="scale(1 1) rotate(0) translate(4 959.25)">
<title>dependency&#45;cruiser output</title>
<polygon fill="white" stroke="none" points="-4,4 -4,-959.25 1172,-959.25 1172,4 -4,4"/>
<g id="clust1" class="cluster">
<title>cluster_src</title>
<path fill="#ffffff" stroke="black" stroke-width="2" d="M20,-8C20,-8 1148,-8 1148,-8 1154,-8 1160,-14 1160,-20 1160,-20 1160,-935.25 1160,-935.25 1160,-941.25 1154,-947.25 1148,-947.25 1148,-947.25 20,-947.25 20,-947.25 14,-947.25 8,-941.25 8,-935.25 8,-935.25 8,-20 8,-20 8,-14 14,-8 20,-8"/>
<text text-anchor="middle" x="584" y="-934.7" font-family="Helvetica,sans-Serif" font-weight="bold" font-size="9.00">src</text>
</g>
<g id="clust2" class="cluster">
<title>cluster_src/app</title>
<path fill="#ffffff" stroke="black" stroke-width="2" d="M680,-776.75C680,-776.75 806,-776.75 806,-776.75 812,-776.75 818,-782.75 818,-788.75 818,-788.75 818,-909.5 818,-909.5 818,-915.5 812,-921.5 806,-921.5 806,-921.5 680,-921.5 680,-921.5 674,-921.5 668,-915.5 668,-909.5 668,-909.5 668,-788.75 668,-788.75 668,-782.75 674,-776.75 680,-776.75"/>
<text text-anchor="middle" x="743" y="-908.95" font-family="Helvetica,sans-Serif" font-weight="bold" font-size="9.00">app</text>
</g>
<g id="clust3" class="cluster">
<title>cluster_src/app/styles</title>
<path fill="#ffffff" stroke="black" stroke-width="2" d="M750,-784.75C750,-784.75 796,-784.75 796,-784.75 802,-784.75 808,-790.75 808,-796.75 808,-796.75 808,-824.25 808,-824.25 808,-830.25 802,-836.25 796,-836.25 796,-836.25 750,-836.25 750,-836.25 744,-836.25 738,-830.25 738,-824.25 738,-824.25 738,-796.75 738,-796.75 738,-790.75 744,-784.75 750,-784.75"/>
<text text-anchor="middle" x="773" y="-823.7" font-family="Helvetica,sans-Serif" font-weight="bold" font-size="9.00">styles</text>
</g>
<g id="clust4" class="cluster">
<title>cluster_src/app/types</title>
<path fill="#ffffff" stroke="black" stroke-width="2" d="M750,-844.25C750,-844.25 798,-844.25 798,-844.25 804,-844.25 810,-850.25 810,-856.25 810,-856.25 810,-883.75 810,-883.75 810,-889.75 804,-895.75 798,-895.75 798,-895.75 750,-895.75 750,-895.75 744,-895.75 738,-889.75 738,-883.75 738,-883.75 738,-856.25 738,-856.25 738,-850.25 744,-844.25 750,-844.25"/>
<text text-anchor="middle" x="774" y="-883.2" font-family="Helvetica,sans-Serif" font-weight="bold" font-size="9.00">types</text>
</g>
<g id="clust5" class="cluster">
<title>cluster_src/entities</title>
<path fill="#ffffff" stroke="black" stroke-width="2" d="M28,-133.25C28,-133.25 326,-133.25 326,-133.25 332,-133.25 338,-139.25 338,-145.25 338,-145.25 338,-602.25 338,-602.25 338,-608.25 332,-614.25 326,-614.25 326,-614.25 28,-614.25 28,-614.25 22,-614.25 16,-608.25 16,-602.25 16,-602.25 16,-145.25 16,-145.25 16,-139.25 22,-133.25 28,-133.25"/>
<text text-anchor="middle" x="177" y="-601.7" font-family="Helvetica,sans-Serif" font-weight="bold" font-size="9.00">entities</text>
</g>
<g id="clust6" class="cluster">
<title>cluster_src/entities/users</title>
<path fill="#ffffff" stroke="black" stroke-width="2" d="M36,-141.25C36,-141.25 318,-141.25 318,-141.25 324,-141.25 330,-147.25 330,-153.25 330,-153.25 330,-576.5 330,-576.5 330,-582.5 324,-588.5 318,-588.5 318,-588.5 36,-588.5 36,-588.5 30,-588.5 24,-582.5 24,-576.5 24,-576.5 24,-153.25 24,-153.25 24,-147.25 30,-141.25 36,-141.25"/>
<text text-anchor="middle" x="177" y="-575.95" font-family="Helvetica,sans-Serif" font-weight="bold" font-size="9.00">users</text>
</g>
<g id="clust7" class="cluster">
<title>cluster_src/entities/users/api</title>
<path fill="#ffffff" stroke="black" stroke-width="2" d="M184,-149.25C184,-149.25 310,-149.25 310,-149.25 316,-149.25 322,-155.25 322,-161.25 322,-161.25 322,-322.5 322,-322.5 322,-328.5 316,-334.5 310,-334.5 310,-334.5 184,-334.5 184,-334.5 178,-334.5 172,-328.5 172,-322.5 172,-322.5 172,-161.25 172,-161.25 172,-155.25 178,-149.25 184,-149.25"/>
<text text-anchor="middle" x="247" y="-321.95" font-family="Helvetica,sans-Serif" font-weight="bold" font-size="9.00">api</text>
</g>
<g id="clust8" class="cluster">
<title>cluster_src/entities/users/lib</title>
<path fill="#ffffff" stroke="black" stroke-width="2" d="M230,-350.5C230,-350.5 310,-350.5 310,-350.5 316,-350.5 322,-356.5 322,-362.5 322,-362.5 322,-447.75 322,-447.75 322,-453.75 316,-459.75 310,-459.75 310,-459.75 230,-459.75 230,-459.75 224,-459.75 218,-453.75 218,-447.75 218,-447.75 218,-362.5 218,-362.5 218,-356.5 224,-350.5 230,-350.5"/>
<text text-anchor="middle" x="270" y="-447.2" font-family="Helvetica,sans-Serif" font-weight="bold" font-size="9.00">lib</text>
</g>
<g id="clust9" class="cluster">
<title>cluster_src/entities/users/ui</title>
<path fill="#ffffff" stroke="black" stroke-width="2" d="M44,-342.5C44,-342.5 192,-342.5 192,-342.5 198,-342.5 204,-348.5 204,-354.5 204,-354.5 204,-525 204,-525 204,-531 198,-537 192,-537 192,-537 44,-537 44,-537 38,-537 32,-531 32,-525 32,-525 32,-354.5 32,-354.5 32,-348.5 38,-342.5 44,-342.5"/>
<text text-anchor="middle" x="118" y="-524.45" font-family="Helvetica,sans-Serif" font-weight="bold" font-size="9.00">ui</text>
</g>
<g id="clust10" class="cluster">
<title>cluster_src/entities/users/ui/users</title>
<path fill="#ffffff" stroke="black" stroke-width="2" d="M52,-350.5C52,-350.5 184,-350.5 184,-350.5 190,-350.5 196,-356.5 196,-362.5 196,-362.5 196,-499.25 196,-499.25 196,-505.25 190,-511.25 184,-511.25 184,-511.25 52,-511.25 52,-511.25 46,-511.25 40,-505.25 40,-499.25 40,-499.25 40,-362.5 40,-362.5 40,-356.5 46,-350.5 52,-350.5"/>
<text text-anchor="middle" x="118" y="-498.7" font-family="Helvetica,sans-Serif" font-weight="bold" font-size="9.00">users</text>
</g>
<g id="clust11" class="cluster">
<title>cluster_src/pages</title>
<path fill="#ffffff" stroke="black" stroke-width="2" d="M358,-384.25C358,-384.25 846,-384.25 846,-384.25 852,-384.25 858,-390.25 858,-396.25 858,-396.25 858,-756.75 858,-756.75 858,-762.75 852,-768.75 846,-768.75 846,-768.75 358,-768.75 358,-768.75 352,-768.75 346,-762.75 346,-756.75 346,-756.75 346,-396.25 346,-396.25 346,-390.25 352,-384.25 358,-384.25"/>
<text text-anchor="middle" x="602" y="-756.2" font-family="Helvetica,sans-Serif" font-weight="bold" font-size="9.00">pages</text>
</g>
<g id="clust14" class="cluster">
<title>cluster_src/pages/welcome</title>
<path fill="#ffffff" stroke="black" stroke-width="2" d="M366,-392.25C366,-392.25 710,-392.25 710,-392.25 716,-392.25 722,-398.25 722,-404.25 722,-404.25 722,-705.25 722,-705.25 722,-711.25 716,-717.25 710,-717.25 710,-717.25 366,-717.25 366,-717.25 360,-717.25 354,-711.25 354,-705.25 354,-705.25 354,-404.25 354,-404.25 354,-398.25 360,-392.25 366,-392.25"/>
<text text-anchor="middle" x="538" y="-704.7" font-family="Helvetica,sans-Serif" font-weight="bold" font-size="9.00">welcome</text>
</g>
<g id="clust15" class="cluster">
<title>cluster_src/pages/welcome/lib</title>
<path fill="#ffffff" stroke="black" stroke-width="2" d="M598,-400.25C598,-400.25 702,-400.25 702,-400.25 708,-400.25 714,-406.25 714,-412.25 714,-412.25 714,-525 714,-525 714,-531 708,-537 702,-537 702,-537 598,-537 598,-537 592,-537 586,-531 586,-525 586,-525 586,-412.25 586,-412.25 586,-406.25 592,-400.25 598,-400.25"/>
<text text-anchor="middle" x="650" y="-524.45" font-family="Helvetica,sans-Serif" font-weight="bold" font-size="9.00">lib</text>
</g>
<g id="clust16" class="cluster">
<title>cluster_src/pages/welcome/lib/use&#45;counter</title>
<path fill="#ffffff" stroke="black" stroke-width="2" d="M606,-408.25C606,-408.25 694,-408.25 694,-408.25 700,-408.25 706,-414.25 706,-420.25 706,-420.25 706,-499.25 706,-499.25 706,-505.25 700,-511.25 694,-511.25 694,-511.25 606,-511.25 606,-511.25 600,-511.25 594,-505.25 594,-499.25 594,-499.25 594,-420.25 594,-420.25 594,-414.25 600,-408.25 606,-408.25"/>
<text text-anchor="middle" x="650" y="-498.7" font-family="Helvetica,sans-Serif" font-weight="bold" font-size="9.00">use&#45;counter</text>
</g>
<g id="clust17" class="cluster">
<title>cluster_src/pages/welcome/ui</title>
<path fill="#ffffff" stroke="black" stroke-width="2" d="M374,-400.25C374,-400.25 566,-400.25 566,-400.25 572,-400.25 578,-406.25 578,-412.25 578,-412.25 578,-653.75 578,-653.75 578,-659.75 572,-665.75 566,-665.75 566,-665.75 374,-665.75 374,-665.75 368,-665.75 362,-659.75 362,-653.75 362,-653.75 362,-412.25 362,-412.25 362,-406.25 368,-400.25 374,-400.25"/>
<text text-anchor="middle" x="470" y="-653.2" font-family="Helvetica,sans-Serif" font-weight="bold" font-size="9.00">ui</text>
</g>
<g id="clust18" class="cluster">
<title>cluster_src/pages/welcome/ui/counter</title>
<path fill="#ffffff" stroke="black" stroke-width="2" d="M382,-408.25C382,-408.25 462,-408.25 462,-408.25 468,-408.25 474,-414.25 474,-420.25 474,-420.25 474,-576.5 474,-576.5 474,-582.5 468,-588.5 462,-588.5 462,-588.5 382,-588.5 382,-588.5 376,-588.5 370,-582.5 370,-576.5 370,-576.5 370,-420.25 370,-420.25 370,-414.25 376,-408.25 382,-408.25"/>
<text text-anchor="middle" x="422" y="-575.95" font-family="Helvetica,sans-Serif" font-weight="bold" font-size="9.00">counter</text>
</g>
<g id="clust12" class="cluster">
<title>cluster_src/pages/layouts</title>
<path fill="#ffffff" stroke="black" stroke-width="2" d="M742,-400.25C742,-400.25 838,-400.25 838,-400.25 844,-400.25 850,-406.25 850,-412.25 850,-412.25 850,-602.25 850,-602.25 850,-608.25 844,-614.25 838,-614.25 838,-614.25 742,-614.25 742,-614.25 736,-614.25 730,-608.25 730,-602.25 730,-602.25 730,-412.25 730,-412.25 730,-406.25 736,-400.25 742,-400.25"/>
<text text-anchor="middle" x="790" y="-601.7" font-family="Helvetica,sans-Serif" font-weight="bold" font-size="9.00">layouts</text>
</g>
<g id="clust13" class="cluster">
<title>cluster_src/pages/layouts/main</title>
<path fill="#ffffff" stroke="black" stroke-width="2" d="M750,-408.25C750,-408.25 830,-408.25 830,-408.25 836,-408.25 842,-414.25 842,-420.25 842,-420.25 842,-576.5 842,-576.5 842,-582.5 836,-588.5 830,-588.5 830,-588.5 750,-588.5 750,-588.5 744,-588.5 738,-582.5 738,-576.5 738,-576.5 738,-420.25 738,-420.25 738,-414.25 744,-408.25 750,-408.25"/>
<text text-anchor="middle" x="790" y="-575.95" font-family="Helvetica,sans-Serif" font-weight="bold" font-size="9.00">main</text>
</g>
<g id="clust19" class="cluster">
<title>cluster_src/shared</title>
<path fill="#ffffff" stroke="black" stroke-width="2" d="M358,-16C358,-16 1140,-16 1140,-16 1146,-16 1152,-22 1152,-28 1152,-28 1152,-240.25 1152,-240.25 1152,-246.25 1146,-252.25 1140,-252.25 1140,-252.25 358,-252.25 358,-252.25 352,-252.25 346,-246.25 346,-240.25 346,-240.25 346,-28 346,-28 346,-22 352,-16 358,-16"/>
<text text-anchor="middle" x="749" y="-239.7" font-family="Helvetica,sans-Serif" font-weight="bold" font-size="9.00">shared</text>
</g>
<g id="clust21" class="cluster">
<title>cluster_src/shared/config</title>
<path fill="#ffffff" stroke="black" stroke-width="2" d="M368,-73.75C368,-73.75 414,-73.75 414,-73.75 420,-73.75 426,-79.75 426,-85.75 426,-85.75 426,-113.25 426,-113.25 426,-119.25 420,-125.25 414,-125.25 414,-125.25 368,-125.25 368,-125.25 362,-125.25 356,-119.25 356,-113.25 356,-113.25 356,-85.75 356,-85.75 356,-79.75 362,-73.75 368,-73.75"/>
<text text-anchor="middle" x="391" y="-112.7" font-family="Helvetica,sans-Serif" font-weight="bold" font-size="9.00">config</text>
</g>
<g id="clust25" class="cluster">
<title>cluster_src/shared/routes</title>
<path fill="#ffffff" stroke="black" stroke-width="2" d="M1086,-149.25C1086,-149.25 1132,-149.25 1132,-149.25 1138,-149.25 1144,-155.25 1144,-161.25 1144,-161.25 1144,-188.75 1144,-188.75 1144,-194.75 1138,-200.75 1132,-200.75 1132,-200.75 1086,-200.75 1086,-200.75 1080,-200.75 1074,-194.75 1074,-188.75 1074,-188.75 1074,-161.25 1074,-161.25 1074,-155.25 1080,-149.25 1086,-149.25"/>
<text text-anchor="middle" x="1109" y="-188.2" font-family="Helvetica,sans-Serif" font-weight="bold" font-size="9.00">routes</text>
</g>
<g id="clust20" class="cluster">
<title>cluster_src/shared/api</title>
<path fill="#ffffff" stroke="black" stroke-width="2" d="M366,-149.25C366,-149.25 518,-149.25 518,-149.25 524,-149.25 530,-155.25 530,-161.25 530,-161.25 530,-188.75 530,-188.75 530,-194.75 524,-200.75 518,-200.75 518,-200.75 366,-200.75 366,-200.75 360,-200.75 354,-194.75 354,-188.75 354,-188.75 354,-161.25 354,-161.25 354,-155.25 360,-149.25 366,-149.25"/>
<text text-anchor="middle" x="442" y="-188.2" font-family="Helvetica,sans-Serif" font-weight="bold" font-size="9.00">api</text>
</g>
<g id="clust22" class="cluster">
<title>cluster_src/shared/lib</title>
<path fill="#ffffff" stroke="black" stroke-width="2" d="M912,-65.75C912,-65.75 1054,-65.75 1054,-65.75 1060,-65.75 1066,-71.75 1066,-77.75 1066,-77.75 1066,-214.5 1066,-214.5 1066,-220.5 1060,-226.5 1054,-226.5 1054,-226.5 912,-226.5 912,-226.5 906,-226.5 900,-220.5 900,-214.5 900,-214.5 900,-77.75 900,-77.75 900,-71.75 906,-65.75 912,-65.75"/>
<text text-anchor="middle" x="983" y="-213.95" font-family="Helvetica,sans-Serif" font-weight="bold" font-size="9.00">lib</text>
</g>
<g id="clust23" class="cluster">
<title>cluster_src/shared/lib/testing</title>
<path fill="#ffffff" stroke="black" stroke-width="2" d="M998,-73.75C998,-73.75 1046,-73.75 1046,-73.75 1052,-73.75 1058,-79.75 1058,-85.75 1058,-85.75 1058,-188.75 1058,-188.75 1058,-194.75 1052,-200.75 1046,-200.75 1046,-200.75 998,-200.75 998,-200.75 992,-200.75 986,-194.75 986,-188.75 986,-188.75 986,-85.75 986,-85.75 986,-79.75 992,-73.75 998,-73.75"/>
<text text-anchor="middle" x="1022" y="-188.2" font-family="Helvetica,sans-Serif" font-weight="bold" font-size="9.00">testing</text>
</g>
<g id="clust24" class="cluster">
<title>cluster_src/shared/lib/validation</title>
<path fill="#ffffff" stroke="black" stroke-width="2" d="M920,-73.75C920,-73.75 966,-73.75 966,-73.75 972,-73.75 978,-79.75 978,-85.75 978,-85.75 978,-188.75 978,-188.75 978,-194.75 972,-200.75 966,-200.75 966,-200.75 920,-200.75 920,-200.75 914,-200.75 908,-194.75 908,-188.75 908,-188.75 908,-85.75 908,-85.75 908,-79.75 914,-73.75 920,-73.75"/>
<text text-anchor="middle" x="943" y="-188.2" font-family="Helvetica,sans-Serif" font-weight="bold" font-size="9.00">validation</text>
</g>
<g id="clust26" class="cluster">
<title>cluster_src/shared/ui</title>
<path fill="#ffffff" stroke="black" stroke-width="2" d="M550,-24C550,-24 880,-24 880,-24 886,-24 892,-30 892,-36 892,-36 892,-214.5 892,-214.5 892,-220.5 886,-226.5 880,-226.5 880,-226.5 550,-226.5 550,-226.5 544,-226.5 538,-220.5 538,-214.5 538,-214.5 538,-36 538,-36 538,-30 544,-24 550,-24"/>
<text text-anchor="middle" x="715" y="-213.95" font-family="Helvetica,sans-Serif" font-weight="bold" font-size="9.00">ui</text>
</g>
<g id="clust27" class="cluster">
<title>cluster_src/shared/ui/button</title>
<path fill="#ffffff" stroke="black" stroke-width="2" d="M738,-32C738,-32 872,-32 872,-32 878,-32 884,-38 884,-44 884,-44 884,-188.75 884,-188.75 884,-194.75 878,-200.75 872,-200.75 872,-200.75 738,-200.75 738,-200.75 732,-200.75 726,-194.75 726,-188.75 726,-188.75 726,-44 726,-44 726,-38 732,-32 738,-32"/>
<text text-anchor="middle" x="805" y="-188.2" font-family="Helvetica,sans-Serif" font-weight="bold" font-size="9.00">button</text>
</g>
<g id="clust28" class="cluster">
<title>cluster_src/shared/ui/container</title>
<path fill="#ffffff" stroke="black" stroke-width="2" d="M558,-32C558,-32 706,-32 706,-32 712,-32 718,-38 718,-44 718,-44 718,-188.75 718,-188.75 718,-194.75 712,-200.75 706,-200.75 706,-200.75 558,-200.75 558,-200.75 552,-200.75 546,-194.75 546,-188.75 546,-188.75 546,-44 546,-44 546,-38 552,-32 558,-32"/>
<text text-anchor="middle" x="632" y="-188.2" font-family="Helvetica,sans-Serif" font-weight="bold" font-size="9.00">container</text>
</g>
<!-- src/app/app.tsx -->
<g id="node1" class="node">
<title>src/app/app.tsx</title>
<g id="a_node1"><a xlink:href="src/app/app.tsx" xlink:title="app.tsx">
<path fill="#bbfeff" stroke="black" d="M724.08,-810.5C724.08,-810.5 681.92,-810.5 681.92,-810.5 678.96,-810.5 676,-807.54 676,-804.58 676,-804.58 676,-798.67 676,-798.67 676,-795.71 678.96,-792.75 681.92,-792.75 681.92,-792.75 724.08,-792.75 724.08,-792.75 727.04,-792.75 730,-795.71 730,-798.67 730,-798.67 730,-804.58 730,-804.58 730,-807.54 727.04,-810.5 724.08,-810.5"/>
<text text-anchor="start" x="688.38" y="-797.95" font-family="Helvetica,sans-Serif" font-size="9.00">app.tsx</text>
</a>
</g>
</g>
<!-- src/pages/router.tsx -->
<g id="node2" class="node">
<title>src/pages/router.tsx</title>
<g id="a_node2"><a xlink:href="src/pages/router.tsx" xlink:title="router.tsx">
<path fill="#bbfeff" stroke="black" d="M724.08,-743C724.08,-743 681.92,-743 681.92,-743 678.96,-743 676,-740.04 676,-737.08 676,-737.08 676,-731.17 676,-731.17 676,-728.21 678.96,-725.25 681.92,-725.25 681.92,-725.25 724.08,-725.25 724.08,-725.25 727.04,-725.25 730,-728.21 730,-731.17 730,-731.17 730,-737.08 730,-737.08 730,-740.04 727.04,-743 724.08,-743"/>
<text text-anchor="start" x="684.25" y="-730.45" font-family="Helvetica,sans-Serif" font-size="9.00">router.tsx</text>
</a>
</g>
</g>
<!-- src/app/app.tsx&#45;&gt;src/pages/router.tsx -->
<g id="edge1" class="edge">
<title>src/app/app.tsx&#45;&gt;src/pages/router.tsx</title>
<path fill="none" stroke="#000000" stroke-width="2" stroke-opacity="0.200000" d="M703,-792.33C703,-782.23 703,-764.94 703,-752"/>
<polygon fill="#000000" fill-opacity="0.200000" stroke="#000000" stroke-width="2" stroke-opacity="0.200000" points="705.1,-752.15 703,-746.15 700.9,-752.15 705.1,-752.15"/>
</g>
<!-- src/pages/welcome/index.ts -->
<g id="node25" class="node">
<title>src/pages/welcome/index.ts</title>
<g id="a_node25"><a xlink:href="src/pages/welcome/index.ts" xlink:title="index.ts">
<path fill="#ddfeff" stroke="black" d="M605.08,-691.5C605.08,-691.5 562.92,-691.5 562.92,-691.5 559.96,-691.5 557,-688.54 557,-685.58 557,-685.58 557,-679.67 557,-679.67 557,-676.71 559.96,-673.75 562.92,-673.75 562.92,-673.75 605.08,-673.75 605.08,-673.75 608.04,-673.75 611,-676.71 611,-679.67 611,-679.67 611,-685.58 611,-685.58 611,-688.54 608.04,-691.5 605.08,-691.5"/>
<text text-anchor="start" x="568.25" y="-678.95" font-family="Helvetica,sans-Serif" font-size="9.00">index.ts</text>
</a>
</g>
</g>
<!-- src/pages/router.tsx&#45;&gt;src/pages/welcome/index.ts -->
<g id="edge27" class="edge">
<title>src/pages/router.tsx&#45;&gt;src/pages/welcome/index.ts</title>
<path fill="none" stroke="#000000" stroke-width="2" stroke-opacity="0.200000" d="M683.08,-724.84C663.69,-716.77 634.03,-704.44 612.21,-695.36"/>
<polygon fill="#000000" fill-opacity="0.200000" stroke="#000000" stroke-width="2" stroke-opacity="0.200000" points="612.33,-693.3 605.98,-692.94 610.72,-697.18 612.33,-693.3"/>
</g>
<!-- src/shared/routes/index.ts -->
<g id="node26" class="node">
<title>src/shared/routes/index.ts</title>
<g id="a_node26"><a xlink:href="src/shared/routes/index.ts" xlink:title="index.ts">
<path fill="#ddfeff" stroke="black" d="M1130.08,-175C1130.08,-175 1087.92,-175 1087.92,-175 1084.96,-175 1082,-172.04 1082,-169.08 1082,-169.08 1082,-163.17 1082,-163.17 1082,-160.21 1084.96,-157.25 1087.92,-157.25 1087.92,-157.25 1130.08,-157.25 1130.08,-157.25 1133.04,-157.25 1136,-160.21 1136,-163.17 1136,-163.17 1136,-169.08 1136,-169.08 1136,-172.04 1133.04,-175 1130.08,-175"/>
<text text-anchor="start" x="1093.25" y="-162.45" font-family="Helvetica,sans-Serif" font-size="9.00">index.ts</text>
</a>
</g>
</g>
<!-- src/pages/router.tsx&#45;&gt;src/shared/routes/index.ts -->
<g id="edge28" class="edge">
<title>src/pages/router.tsx&#45;&gt;src/shared/routes/index.ts</title>
<path fill="none" stroke="#000000" stroke-width="2" stroke-opacity="0.200000" d="M730.49,-729.71C803.72,-719.84 998,-688.36 998,-632.12 998,-632.12 998,-632.12 998,-298.88 998,-264.04 1037.94,-278.36 1061,-252.25 1079.73,-231.05 1094.42,-201.36 1102.39,-183.23"/>
<polygon fill="#000000" fill-opacity="0.200000" stroke="#000000" stroke-width="2" stroke-opacity="0.200000" points="1104.33,-183.69 1104.75,-177.34 1100.47,-182.04 1104.33,-183.69"/>
</g>
<!-- src/app/main.tsx -->
<g id="node3" class="node">
<title>src/app/main.tsx</title>
<g id="a_node3"><a xlink:href="src/app/main.tsx" xlink:title="main.tsx">
<path fill="#bbfeff" stroke="black" d="M724.08,-870C724.08,-870 681.92,-870 681.92,-870 678.96,-870 676,-867.04 676,-864.08 676,-864.08 676,-858.17 676,-858.17 676,-855.21 678.96,-852.25 681.92,-852.25 681.92,-852.25 724.08,-852.25 724.08,-852.25 727.04,-852.25 730,-855.21 730,-858.17 730,-858.17 730,-864.08 730,-864.08 730,-867.04 727.04,-870 724.08,-870"/>
<text text-anchor="start" x="686.12" y="-857.45" font-family="Helvetica,sans-Serif" font-size="9.00">main.tsx</text>
</a>
</g>
</g>
<!-- src/app/main.tsx&#45;&gt;src/app/app.tsx -->
<g id="edge2" class="edge">
<title>src/app/main.tsx&#45;&gt;src/app/app.tsx</title>
<path fill="none" stroke="#000000" stroke-width="2" stroke-opacity="0.200000" d="M703,-852.13C703,-843.81 703,-830.54 703,-819.82"/>
<polygon fill="#000000" fill-opacity="0.200000" stroke="#000000" stroke-width="2" stroke-opacity="0.200000" points="705.1,-819.92 703,-813.92 700.9,-819.92 705.1,-819.92"/>
</g>
<!-- src/app/styles/main.css -->
<g id="node4" class="node">
<title>src/app/styles/main.css</title>
<g id="a_node4"><a xlink:href="src/app/styles/main.css" xlink:title="main.css">
<path fill="#ffffcc" stroke="black" d="M794.08,-810.5C794.08,-810.5 751.92,-810.5 751.92,-810.5 748.96,-810.5 746,-807.54 746,-804.58 746,-804.58 746,-798.67 746,-798.67 746,-795.71 748.96,-792.75 751.92,-792.75 751.92,-792.75 794.08,-792.75 794.08,-792.75 797.04,-792.75 800,-795.71 800,-798.67 800,-798.67 800,-804.58 800,-804.58 800,-807.54 797.04,-810.5 794.08,-810.5"/>
<text text-anchor="start" x="755" y="-797.95" font-family="Helvetica,sans-Serif" font-size="9.00">main.css</text>
</a>
</g>
</g>
<!-- src/app/main.tsx&#45;&gt;src/app/styles/main.css -->
<g id="edge3" class="edge">
<title>src/app/main.tsx&#45;&gt;src/app/styles/main.css</title>
<path fill="none" stroke="#000000" stroke-width="2" stroke-opacity="0.200000" d="M718.85,-851.76C726.21,-847.55 734.88,-842.1 742,-836.25 748.7,-830.74 755.33,-823.81 760.73,-817.68"/>
<polygon fill="#000000" fill-opacity="0.200000" stroke="#000000" stroke-width="2" stroke-opacity="0.200000" points="763.14,-818.9 765.43,-812.97 759.94,-816.18 763.14,-818.9"/>
</g>
<!-- src/app/types/index.d.ts -->
<g id="node5" class="node">
<title>src/app/types/index.d.ts</title>
<g id="a_node5"><a xlink:href="src/app/types/index.d.ts" xlink:title="index.d.ts">
<path fill="#ccffcc" stroke="black" d="M795.58,-870C795.58,-870 752.42,-870 752.42,-870 749.46,-870 746.5,-867.04 746.5,-864.08 746.5,-864.08 746.5,-858.17 746.5,-858.17 746.5,-855.21 749.46,-852.25 752.42,-852.25 752.42,-852.25 795.58,-852.25 795.58,-852.25 798.54,-852.25 801.5,-855.21 801.5,-858.17 801.5,-858.17 801.5,-864.08 801.5,-864.08 801.5,-867.04 798.54,-870 795.58,-870"/>
<text text-anchor="start" x="754.5" y="-857.45" font-family="Helvetica,sans-Serif" font-size="9.00">index.d.ts</text>
</a>
</g>
</g>
<!-- src/entities/users/api/api.ts -->
<g id="node6" class="node">
<title>src/entities/users/api/api.ts</title>
<g id="a_node6"><a xlink:href="src/entities/users/api/api.ts" xlink:title="api.ts">
<path fill="#ddfeff" stroke="black" d="M308.08,-278C308.08,-278 265.92,-278 265.92,-278 262.96,-278 260,-275.04 260,-272.08 260,-272.08 260,-266.17 260,-266.17 260,-263.21 262.96,-260.25 265.92,-260.25 265.92,-260.25 308.08,-260.25 308.08,-260.25 311.04,-260.25 314,-263.21 314,-266.17 314,-266.17 314,-272.08 314,-272.08 314,-275.04 311.04,-278 308.08,-278"/>
<text text-anchor="start" x="276.12" y="-265.45" font-family="Helvetica,sans-Serif" font-size="9.00">api.ts</text>
</a>
</g>
</g>
<!-- src/entities/users/api/types.ts -->
<g id="node7" class="node">
<title>src/entities/users/api/types.ts</title>
<g id="a_node7"><a xlink:href="src/entities/users/api/types.ts" xlink:title="types.ts">
<path fill="#ddfeff" stroke="black" d="M242.08,-175C242.08,-175 199.92,-175 199.92,-175 196.96,-175 194,-172.04 194,-169.08 194,-169.08 194,-163.17 194,-163.17 194,-160.21 196.96,-157.25 199.92,-157.25 199.92,-157.25 242.08,-157.25 242.08,-157.25 245.04,-157.25 248,-160.21 248,-163.17 248,-163.17 248,-169.08 248,-169.08 248,-172.04 245.04,-175 242.08,-175"/>
<text text-anchor="start" x="205.62" y="-162.45" font-family="Helvetica,sans-Serif" font-size="9.00">types.ts</text>
</a>
</g>
</g>
<!-- src/entities/users/api/api.ts&#45;&gt;src/entities/users/api/types.ts -->
<g id="edge4" class="edge">
<title>src/entities/users/api/api.ts&#45;&gt;src/entities/users/api/types.ts</title>
<path fill="none" stroke="#000000" stroke-width="2" stroke-opacity="0.200000" d="M281.6,-259.86C270.57,-242.98 245.31,-204.32 231.13,-182.63"/>
<polygon fill="#000000" fill-opacity="0.200000" stroke="#000000" stroke-width="2" stroke-opacity="0.200000" points="232.33,-181.1 227.29,-177.22 228.82,-183.39 232.33,-181.1"/>
</g>
<!-- src/shared/api/instances.ts -->
<g id="node8" class="node">
<title>src/shared/api/instances.ts</title>
<g id="a_node8"><a xlink:href="src/shared/api/instances.ts" xlink:title="instances.ts">
<path fill="#ddfeff" stroke="black" d="M420.08,-175C420.08,-175 367.92,-175 367.92,-175 364.96,-175 362,-172.04 362,-169.08 362,-169.08 362,-163.17 362,-163.17 362,-160.21 364.96,-157.25 367.92,-157.25 367.92,-157.25 420.08,-157.25 420.08,-157.25 423.04,-157.25 426,-160.21 426,-163.17 426,-163.17 426,-169.08 426,-169.08 426,-172.04 423.04,-175 420.08,-175"/>
<text text-anchor="start" x="370" y="-162.45" font-family="Helvetica,sans-Serif" font-size="9.00">instances.ts</text>
</a>
</g>
</g>
<!-- src/entities/users/api/api.ts&#45;&gt;src/shared/api/instances.ts -->
<g id="edge5" class="edge">
<title>src/entities/users/api/api.ts&#45;&gt;src/shared/api/instances.ts</title>
<path fill="none" stroke="#000000" stroke-width="2" stroke-opacity="0.200000" d="M311.69,-259.91C316.34,-257.8 320.99,-255.25 325,-252.25 350.88,-232.87 372.81,-201.7 384.63,-182.94"/>
<polygon fill="#000000" fill-opacity="0.200000" stroke="#000000" stroke-width="2" stroke-opacity="0.200000" points="386.98,-183.49 388.32,-177.28 383.4,-181.3 386.98,-183.49"/>
</g>
<!-- src/shared/config/index.ts -->
<g id="node13" class="node">
<title>src/shared/config/index.ts</title>
<g id="a_node13"><a xlink:href="src/shared/config/index.ts" xlink:title="index.ts">
<path fill="#ddfeff" stroke="black" d="M412.08,-99.5C412.08,-99.5 369.92,-99.5 369.92,-99.5 366.96,-99.5 364,-96.54 364,-93.58 364,-93.58 364,-87.67 364,-87.67 364,-84.71 366.96,-81.75 369.92,-81.75 369.92,-81.75 412.08,-81.75 412.08,-81.75 415.04,-81.75 418,-84.71 418,-87.67 418,-87.67 418,-93.58 418,-93.58 418,-96.54 415.04,-99.5 412.08,-99.5"/>
<text text-anchor="start" x="375.25" y="-86.95" font-family="Helvetica,sans-Serif" font-size="9.00">index.ts</text>
</a>
</g>
</g>
<!-- src/shared/api/instances.ts&#45;&gt;src/shared/config/index.ts -->
<g id="edge40" class="edge">
<title>src/shared/api/instances.ts&#45;&gt;src/shared/config/index.ts</title>
<path fill="none" stroke="#000000" stroke-width="2" stroke-opacity="0.200000" d="M393.67,-156.98C393.19,-145.33 392.31,-123.64 391.69,-108.45"/>
<polygon fill="#000000" fill-opacity="0.200000" stroke="#000000" stroke-width="2" stroke-opacity="0.200000" points="393.67,-108.49 391.32,-102.58 389.47,-108.67 393.67,-108.49"/>
</g>
<!-- src/entities/users/api/fixtures.ts -->
<g id="node9" class="node">
<title>src/entities/users/api/fixtures.ts</title>
<g id="a_node9"><a xlink:href="src/entities/users/api/fixtures.ts" xlink:title="fixtures.ts">
<path fill="#ddfeff" stroke="black" d="M242.21,-278C242.21,-278 199.79,-278 199.79,-278 196.83,-278 193.88,-275.04 193.88,-272.08 193.88,-272.08 193.88,-266.17 193.88,-266.17 193.88,-263.21 196.83,-260.25 199.79,-260.25 199.79,-260.25 242.21,-260.25 242.21,-260.25 245.17,-260.25 248.12,-263.21 248.12,-266.17 248.12,-266.17 248.12,-272.08 248.12,-272.08 248.12,-275.04 245.17,-278 242.21,-278"/>
<text text-anchor="start" x="201.88" y="-265.45" font-family="Helvetica,sans-Serif" font-size="9.00">fixtures.ts</text>
</a>
</g>
</g>
<!-- src/entities/users/api/fixtures.ts&#45;&gt;src/entities/users/api/types.ts -->
<g id="edge6" class="edge">
<title>src/entities/users/api/fixtures.ts&#45;&gt;src/entities/users/api/types.ts</title>
<path fill="none" stroke="#000000" stroke-width="2" stroke-opacity="0.200000" d="M221,-259.86C221,-243.35 221,-206.02 221,-184.08"/>
<polygon fill="#000000" fill-opacity="0.200000" stroke="#000000" stroke-width="2" stroke-opacity="0.200000" points="223.1,-184.22 221,-178.22 218.9,-184.22 223.1,-184.22"/>
</g>
<!-- src/entities/users/api/index.ts -->
<g id="node10" class="node">
<title>src/entities/users/api/index.ts</title>
<g id="a_node10"><a xlink:href="src/entities/users/api/index.ts" xlink:title="index.ts">
<path fill="#ddfeff" stroke="black" d="M242.08,-308.75C242.08,-308.75 199.92,-308.75 199.92,-308.75 196.96,-308.75 194,-305.79 194,-302.83 194,-302.83 194,-296.92 194,-296.92 194,-293.96 196.96,-291 199.92,-291 199.92,-291 242.08,-291 242.08,-291 245.04,-291 248,-293.96 248,-296.92 248,-296.92 248,-302.83 248,-302.83 248,-305.79 245.04,-308.75 242.08,-308.75"/>
<text text-anchor="start" x="205.25" y="-296.2" font-family="Helvetica,sans-Serif" font-size="9.00">index.ts</text>
</a>
</g>
</g>
<!-- src/entities/users/api/index.ts&#45;&gt;src/entities/users/api/api.ts -->
<g id="edge7" class="edge">
<title>src/entities/users/api/index.ts&#45;&gt;src/entities/users/api/api.ts</title>
<path fill="none" stroke="#000000" stroke-width="2" stroke-opacity="0.200000" d="M240.09,-290.56C246.3,-287.85 253.32,-284.8 259.99,-281.89"/>
<polygon fill="#000000" fill-opacity="0.200000" stroke="#000000" stroke-width="2" stroke-opacity="0.200000" points="261.52,-283.64 266.18,-279.32 259.84,-279.79 261.52,-283.64"/>
</g>
<!-- src/entities/users/api/index.ts&#45;&gt;src/entities/users/api/types.ts -->
<g id="edge9" class="edge">
<title>src/entities/users/api/index.ts&#45;&gt;src/entities/users/api/types.ts</title>
<path fill="none" stroke="#000000" stroke-width="2" stroke-opacity="0.200000" d="M201.08,-290.67C195.9,-287.51 190.94,-283.34 188,-278 184.19,-271.09 186.66,-268.02 188,-260.25 192.85,-232.07 205.38,-201.1 213.53,-182.92"/>
<polygon fill="#000000" fill-opacity="0.200000" stroke="#000000" stroke-width="2" stroke-opacity="0.200000" points="215.53,-183.42 216.12,-177.1 211.71,-181.67 215.53,-183.42"/>
</g>
<!-- src/entities/users/api/index.ts&#45;&gt;src/entities/users/api/fixtures.ts -->
<g id="edge8" class="edge">
<title>src/entities/users/api/index.ts&#45;&gt;src/entities/users/api/fixtures.ts</title>
<path fill="none" stroke="#000000" stroke-width="2" stroke-opacity="0.200000" d="M221,-290.71C221,-289.63 221,-288.49 221,-287.32"/>
<polygon fill="#000000" fill-opacity="0.200000" stroke="#000000" stroke-width="2" stroke-opacity="0.200000" points="223.1,-287.41 221,-281.41 218.9,-287.41 223.1,-287.41"/>
</g>
<!-- src/entities/users/api/mocks.ts -->
<g id="node11" class="node">
<title>src/entities/users/api/mocks.ts</title>
<g id="a_node11"><a xlink:href="src/entities/users/api/mocks.ts" xlink:title="mocks.ts">
<path fill="#ddfeff" stroke="black" d="M308.08,-308.75C308.08,-308.75 265.92,-308.75 265.92,-308.75 262.96,-308.75 260,-305.79 260,-302.83 260,-302.83 260,-296.92 260,-296.92 260,-293.96 262.96,-291 265.92,-291 265.92,-291 308.08,-291 308.08,-291 311.04,-291 314,-293.96 314,-296.92 314,-296.92 314,-302.83 314,-302.83 314,-305.79 311.04,-308.75 308.08,-308.75"/>
<text text-anchor="start" x="269.38" y="-296.2" font-family="Helvetica,sans-Serif" font-size="9.00">mocks.ts</text>
</a>
</g>
</g>
<!-- src/entities/users/api/mocks.ts&#45;&gt;src/entities/users/api/api.ts -->
<g id="edge10" class="edge">
<title>src/entities/users/api/mocks.ts&#45;&gt;src/entities/users/api/api.ts</title>
<path fill="none" stroke="#000000" stroke-width="2" stroke-opacity="0.200000" d="M287,-290.71C287,-289.63 287,-288.49 287,-287.32"/>
<polygon fill="#000000" fill-opacity="0.200000" stroke="#000000" stroke-width="2" stroke-opacity="0.200000" points="289.1,-287.41 287,-281.41 284.9,-287.41 289.1,-287.41"/>
</g>
<!-- src/entities/users/api/mocks.ts&#45;&gt;src/entities/users/api/fixtures.ts -->
<g id="edge11" class="edge">
<title>src/entities/users/api/mocks.ts&#45;&gt;src/entities/users/api/fixtures.ts</title>
<path fill="none" stroke="#000000" stroke-width="2" stroke-opacity="0.200000" d="M267.91,-290.56C261.7,-287.85 254.68,-284.8 248.01,-281.89"/>
<polygon fill="#000000" fill-opacity="0.200000" stroke="#000000" stroke-width="2" stroke-opacity="0.200000" points="248.16,-279.79 241.82,-279.32 246.48,-283.64 248.16,-279.79"/>
</g>
<!-- src/shared/api/mock&#45;instance.ts -->
<g id="node12" class="node">
<title>src/shared/api/mock&#45;instance.ts</title>
<g id="a_node12"><a xlink:href="src/shared/api/mock-instance.ts" xlink:title="mock&#45;instance.ts">
<path fill="#ddfeff" stroke="black" d="M516.21,-175C516.21,-175 443.79,-175 443.79,-175 440.83,-175 437.88,-172.04 437.88,-169.08 437.88,-169.08 437.88,-163.17 437.88,-163.17 437.88,-160.21 440.83,-157.25 443.79,-157.25 443.79,-157.25 516.21,-157.25 516.21,-157.25 519.17,-157.25 522.12,-160.21 522.12,-163.17 522.12,-163.17 522.12,-169.08 522.12,-169.08 522.12,-172.04 519.17,-175 516.21,-175"/>
<text text-anchor="start" x="445.88" y="-162.45" font-family="Helvetica,sans-Serif" font-size="9.00">mock&#45;instance.ts</text>
</a>
</g>
</g>
<!-- src/entities/users/api/mocks.ts&#45;&gt;src/shared/api/mock&#45;instance.ts -->
<g id="edge12" class="edge">
<title>src/entities/users/api/mocks.ts&#45;&gt;src/shared/api/mock&#45;instance.ts</title>
<path fill="none" stroke="#000000" stroke-width="2" stroke-opacity="0.200000" d="M300.4,-290.64C317.28,-280.42 345.48,-263.88 357,-260.25 372.99,-255.21 418,-261.46 432,-252.25 456.23,-236.31 469.5,-203.71 475.65,-183.8"/>
<polygon fill="#000000" fill-opacity="0.200000" stroke="#000000" stroke-width="2" stroke-opacity="0.200000" points="478.42,-183.76 478.05,-177.41 474.38,-182.6 478.42,-183.76"/>
</g>
<!-- src/entities/users/api/mocks.ts&#45;&gt;src/shared/config/index.ts -->
<g id="edge13" class="edge">
<title>src/entities/users/api/mocks.ts&#45;&gt;src/shared/config/index.ts</title>
<path fill="none" stroke="#000000" stroke-width="2" stroke-opacity="0.200000" d="M259.65,-292.26C257.74,-291.82 255.84,-291.4 254,-291 224.79,-284.64 206.99,-301.09 188,-278 147.14,-228.31 147.33,-183.1 188,-133.25 208.69,-107.89 302.54,-97.55 355.08,-93.69"/>
<polygon fill="#000000" fill-opacity="0.200000" stroke="#000000" stroke-width="2" stroke-opacity="0.200000" points="354.93,-95.6 360.77,-93.09 354.63,-91.41 354.93,-95.6"/>
</g>
<!-- src/entities/users/index.ts -->
<g id="node14" class="node">
<title>src/entities/users/index.ts</title>
<g id="a_node14"><a xlink:href="src/entities/users/index.ts" xlink:title="index.ts">
<path fill="#ddfeff" stroke="black" d="M234.08,-562.75C234.08,-562.75 191.92,-562.75 191.92,-562.75 188.96,-562.75 186,-559.79 186,-556.83 186,-556.83 186,-550.92 186,-550.92 186,-547.96 188.96,-545 191.92,-545 191.92,-545 234.08,-545 234.08,-545 237.04,-545 240,-547.96 240,-550.92 240,-550.92 240,-556.83 240,-556.83 240,-559.79 237.04,-562.75 234.08,-562.75"/>
<text text-anchor="start" x="197.25" y="-550.2" font-family="Helvetica,sans-Serif" font-size="9.00">index.ts</text>
</a>
</g>
</g>
<!-- src/entities/users/lib/use&#45;users.ts -->
<g id="node15" class="node">
<title>src/entities/users/lib/use&#45;users.ts</title>
<g id="a_node15"><a xlink:href="src/entities/users/lib/use-users.ts" xlink:title="use&#45;users.ts">
<path fill="#ddfeff" stroke="black" d="M285.83,-376.25C285.83,-376.25 232.17,-376.25 232.17,-376.25 229.21,-376.25 226.25,-373.29 226.25,-370.33 226.25,-370.33 226.25,-364.42 226.25,-364.42 226.25,-361.46 229.21,-358.5 232.17,-358.5 232.17,-358.5 285.83,-358.5 285.83,-358.5 288.79,-358.5 291.75,-361.46 291.75,-364.42 291.75,-364.42 291.75,-370.33 291.75,-370.33 291.75,-373.29 288.79,-376.25 285.83,-376.25"/>
<text text-anchor="start" x="234.25" y="-363.7" font-family="Helvetica,sans-Serif" font-size="9.00">use&#45;users.ts</text>
</a>
</g>
</g>
<!-- src/entities/users/index.ts&#45;&gt;src/entities/users/lib/use&#45;users.ts -->
<g id="edge14" class="edge">
<title>src/entities/users/index.ts&#45;&gt;src/entities/users/lib/use&#45;users.ts</title>
<path fill="none" stroke="#000000" stroke-width="2" stroke-opacity="0.200000" d="M212.2,-544.56C209.47,-514.29 201.63,-410.38 220,-384.25 220.48,-383.57 220.99,-382.92 221.53,-382.3"/>
<polygon fill="#000000" fill-opacity="0.200000" stroke="#000000" stroke-width="2" stroke-opacity="0.200000" points="223.07,-383.08 226.34,-377.63 220.38,-379.85 223.07,-383.08"/>
</g>
<!-- src/entities/users/ui/users/index.ts -->
<g id="node16" class="node">
<title>src/entities/users/ui/users/index.ts</title>
<g id="a_node16"><a xlink:href="src/entities/users/ui/users/index.ts" xlink:title="index.ts">
<path fill="#ddfeff" stroke="black" d="M96.08,-485.5C96.08,-485.5 53.92,-485.5 53.92,-485.5 50.96,-485.5 48,-482.54 48,-479.58 48,-479.58 48,-473.67 48,-473.67 48,-470.71 50.96,-467.75 53.92,-467.75 53.92,-467.75 96.08,-467.75 96.08,-467.75 99.04,-467.75 102,-470.71 102,-473.67 102,-473.67 102,-479.58 102,-479.58 102,-482.54 99.04,-485.5 96.08,-485.5"/>
<text text-anchor="start" x="59.25" y="-472.95" font-family="Helvetica,sans-Serif" font-size="9.00">index.ts</text>
</a>
</g>
</g>
<!-- src/entities/users/index.ts&#45;&gt;src/entities/users/ui/users/index.ts -->
<g id="edge15" class="edge">
<title>src/entities/users/index.ts&#45;&gt;src/entities/users/ui/users/index.ts</title>
<path fill="none" stroke="#000000" stroke-width="2" stroke-opacity="0.200000" d="M185.89,-551.47C159.06,-549.61 120.27,-545.52 108,-537 93.36,-526.84 84.5,-507.98 79.71,-494.24"/>
<polygon fill="#000000" fill-opacity="0.200000" stroke="#000000" stroke-width="2" stroke-opacity="0.200000" points="80.82,-492.8 77.01,-487.71 76.82,-494.06 80.82,-492.8"/>
</g>
<!-- src/entities/users/lib/use&#45;users.ts&#45;&gt;src/entities/users/api/index.ts -->
<g id="edge18" class="edge">
<title>src/entities/users/lib/use&#45;users.ts&#45;&gt;src/entities/users/api/index.ts</title>
<path fill="none" stroke="#000000" stroke-width="2" stroke-opacity="0.200000" d="M254.19,-358.08C248.16,-347.69 237.7,-329.66 230.13,-316.62"/>
<polygon fill="#000000" fill-opacity="0.200000" stroke="#000000" stroke-width="2" stroke-opacity="0.200000" points="231.48,-315.03 226.65,-310.9 227.85,-317.14 231.48,-315.03"/>
</g>
<!-- src/entities/users/ui/users/users.tsx -->
<g id="node18" class="node">
<title>src/entities/users/ui/users/users.tsx</title>
<g id="a_node18"><a xlink:href="src/entities/users/ui/users/users.tsx" xlink:title="users.tsx">
<path fill="#bbfeff" stroke="black" d="M167.08,-434C167.08,-434 124.92,-434 124.92,-434 121.96,-434 119,-431.04 119,-428.08 119,-428.08 119,-422.17 119,-422.17 119,-419.21 121.96,-416.25 124.92,-416.25 124.92,-416.25 167.08,-416.25 167.08,-416.25 170.04,-416.25 173,-419.21 173,-422.17 173,-422.17 173,-428.08 173,-428.08 173,-431.04 170.04,-434 167.08,-434"/>
<text text-anchor="start" x="128" y="-421.45" font-family="Helvetica,sans-Serif" font-size="9.00">users.tsx</text>
</a>
</g>
</g>
<!-- src/entities/users/ui/users/index.ts&#45;&gt;src/entities/users/ui/users/users.tsx -->
<g id="edge19" class="edge">
<title>src/entities/users/ui/users/index.ts&#45;&gt;src/entities/users/ui/users/users.tsx</title>
<path fill="none" stroke="#000000" stroke-width="2" stroke-opacity="0.200000" d="M86.72,-467.45C97.66,-459.83 114.15,-448.33 126.97,-439.39"/>
<polygon fill="#000000" fill-opacity="0.200000" stroke="#000000" stroke-width="2" stroke-opacity="0.200000" points="128.3,-440.63 132.02,-435.48 125.9,-437.19 128.3,-440.63"/>
</g>
<!-- src/entities/users/lib/use&#45;users.spec.ts -->
<g id="node17" class="node">
<title>src/entities/users/lib/use&#45;users.spec.ts</title>
<g id="a_node17"><a xlink:href="src/entities/users/lib/use-users.spec.ts" xlink:title="use&#45;users.spec.ts">
<path fill="#ddfeff" stroke="black" d="M307.71,-434C307.71,-434 232.29,-434 232.29,-434 229.33,-434 226.38,-431.04 226.38,-428.08 226.38,-428.08 226.38,-422.17 226.38,-422.17 226.38,-419.21 229.33,-416.25 232.29,-416.25 232.29,-416.25 307.71,-416.25 307.71,-416.25 310.67,-416.25 313.62,-419.21 313.62,-422.17 313.62,-422.17 313.62,-428.08 313.62,-428.08 313.62,-431.04 310.67,-434 307.71,-434"/>
<text text-anchor="start" x="234.38" y="-421.45" font-family="Helvetica,sans-Serif" font-size="9.00">use&#45;users.spec.ts</text>
</a>
</g>
</g>
<!-- src/entities/users/lib/use&#45;users.spec.ts&#45;&gt;src/entities/users/api/mocks.ts -->
<g id="edge16" class="edge">
<title>src/entities/users/lib/use&#45;users.spec.ts&#45;&gt;src/entities/users/api/mocks.ts</title>
<path fill="none" stroke="#000000" stroke-width="2" stroke-opacity="0.200000" d="M276.65,-415.93C283.54,-406.85 293.87,-391.49 298,-376.25 303.38,-356.38 298.15,-332.8 293.22,-317.37"/>
<polygon fill="#000000" fill-opacity="0.200000" stroke="#000000" stroke-width="2" stroke-opacity="0.200000" points="294.24,-315.9 290.29,-310.92 290.28,-317.28 294.24,-315.9"/>
</g>
<!-- src/entities/users/lib/use&#45;users.spec.ts&#45;&gt;src/entities/users/lib/use&#45;users.ts -->
<g id="edge17" class="edge">
<title>src/entities/users/lib/use&#45;users.spec.ts&#45;&gt;src/entities/users/lib/use&#45;users.ts</title>
<path fill="none" stroke="#000000" stroke-width="2" stroke-opacity="0.200000" d="M268.38,-415.9C266.8,-407.91 264.36,-395.54 262.36,-385.43"/>
<polygon fill="#000000" fill-opacity="0.200000" stroke="#000000" stroke-width="2" stroke-opacity="0.200000" points="263.85,-384.11 260.63,-378.63 259.73,-384.93 263.85,-384.11"/>
</g>
<!-- src/entities/users/ui/users/users.tsx&#45;&gt;src/entities/users/lib/use&#45;users.ts -->
<g id="edge22" class="edge">
<title>src/entities/users/ui/users/users.tsx&#45;&gt;src/entities/users/lib/use&#45;users.ts</title>
<path fill="none" stroke="#000000" stroke-width="2" stroke-opacity="0.200000" d="M150.02,-415.96C155.02,-406.72 164.45,-391.96 177,-384.25 184,-379.95 200.85,-376.35 217.48,-373.67"/>
<polygon fill="#000000" fill-opacity="0.200000" stroke="#000000" stroke-width="2" stroke-opacity="0.200000" points="218.48,-375.34 224.09,-372.35 217.84,-371.18 218.48,-375.34"/>
</g>
<!-- src/entities/users/ui/users/styles.module.css -->
<g id="node19" class="node">
<title>src/entities/users/ui/users/styles.module.css</title>
<g id="a_node19"><a xlink:href="src/entities/users/ui/users/styles.module.css" xlink:title="styles.module.css">
<path fill="#ffffcc" stroke="black" d="M180.08,-376.25C180.08,-376.25 103.92,-376.25 103.92,-376.25 100.96,-376.25 98,-373.29 98,-370.33 98,-370.33 98,-364.42 98,-364.42 98,-361.46 100.96,-358.5 103.92,-358.5 103.92,-358.5 180.08,-358.5 180.08,-358.5 183.04,-358.5 186,-361.46 186,-364.42 186,-364.42 186,-370.33 186,-370.33 186,-373.29 183.04,-376.25 180.08,-376.25"/>
<text text-anchor="start" x="106" y="-363.7" font-family="Helvetica,sans-Serif" font-size="9.00">styles.module.css</text>
</a>
</g>
</g>
<!-- src/entities/users/ui/users/users.tsx&#45;&gt;src/entities/users/ui/users/styles.module.css -->
<g id="edge23" class="edge">
<title>src/entities/users/ui/users/users.tsx&#45;&gt;src/entities/users/ui/users/styles.module.css</title>
<path fill="none" stroke="#000000" stroke-width="2" stroke-opacity="0.200000" d="M145.41,-415.9C144.84,-407.91 143.95,-395.54 143.22,-385.43"/>
<polygon fill="#000000" fill-opacity="0.200000" stroke="#000000" stroke-width="2" stroke-opacity="0.200000" points="145.12,-385.47 142.59,-379.63 140.93,-385.77 145.12,-385.47"/>
</g>
<!-- src/entities/users/ui/users/users.spec.tsx -->
<g id="node20" class="node">
<title>src/entities/users/ui/users/users.spec.tsx</title>
<g id="a_node20"><a xlink:href="src/entities/users/ui/users/users.spec.tsx" xlink:title="users.spec.tsx">
<path fill="#bbfeff" stroke="black" d="M181.96,-485.5C181.96,-485.5 120.04,-485.5 120.04,-485.5 117.08,-485.5 114.12,-482.54 114.12,-479.58 114.12,-479.58 114.12,-473.67 114.12,-473.67 114.12,-470.71 117.08,-467.75 120.04,-467.75 120.04,-467.75 181.96,-467.75 181.96,-467.75 184.92,-467.75 187.88,-470.71 187.88,-473.67 187.88,-473.67 187.88,-479.58 187.88,-479.58 187.88,-482.54 184.92,-485.5 181.96,-485.5"/>
<text text-anchor="start" x="122.12" y="-472.95" font-family="Helvetica,sans-Serif" font-size="9.00">users.spec.tsx</text>
</a>
</g>
</g>
<!-- src/entities/users/ui/users/users.spec.tsx&#45;&gt;src/entities/users/api/mocks.ts -->
<g id="edge20" class="edge">
<title>src/entities/users/ui/users/users.spec.tsx&#45;&gt;src/entities/users/api/mocks.ts</title>
<path fill="none" stroke="#000000" stroke-width="2" stroke-opacity="0.200000" d="M170.27,-467.31C173.53,-465.22 176.62,-462.71 179,-459.75 213.13,-417.24 174.66,-379.16 215,-342.5 228.1,-330.6 238.46,-342.96 254,-334.5 262.34,-329.96 269.89,-322.63 275.67,-315.97"/>
<polygon fill="#000000" fill-opacity="0.200000" stroke="#000000" stroke-width="2" stroke-opacity="0.200000" points="278.04,-317.15 280.18,-311.17 274.77,-314.51 278.04,-317.15"/>
</g>
<!-- src/entities/users/ui/users/users.spec.tsx&#45;&gt;src/entities/users/ui/users/users.tsx -->
<g id="edge21" class="edge">
<title>src/entities/users/ui/users/users.spec.tsx&#45;&gt;src/entities/users/ui/users/users.tsx</title>
<path fill="none" stroke="#000000" stroke-width="2" stroke-opacity="0.200000" d="M150.17,-467.45C149.51,-460.9 148.56,-451.48 147.73,-443.28"/>
<polygon fill="#000000" fill-opacity="0.200000" stroke="#000000" stroke-width="2" stroke-opacity="0.200000" points="149.54,-443.24 146.84,-437.48 145.36,-443.66 149.54,-443.24"/>
</g>
<!-- src/pages/layouts/main/index.ts -->
<g id="node21" class="node">
<title>src/pages/layouts/main/index.ts</title>
<g id="a_node21"><a xlink:href="src/pages/layouts/main/index.ts" xlink:title="index.ts">
<path fill="#ddfeff" stroke="black" d="M802.08,-562.75C802.08,-562.75 759.92,-562.75 759.92,-562.75 756.96,-562.75 754,-559.79 754,-556.83 754,-556.83 754,-550.92 754,-550.92 754,-547.96 756.96,-545 759.92,-545 759.92,-545 802.08,-545 802.08,-545 805.04,-545 808,-547.96 808,-550.92 808,-550.92 808,-556.83 808,-556.83 808,-559.79 805.04,-562.75 802.08,-562.75"/>
<text text-anchor="start" x="765.25" y="-550.2" font-family="Helvetica,sans-Serif" font-size="9.00">index.ts</text>
</a>
</g>
</g>
<!-- src/pages/layouts/main/main.tsx -->
<g id="node22" class="node">
<title>src/pages/layouts/main/main.tsx</title>
<g id="a_node22"><a xlink:href="src/pages/layouts/main/main.tsx" xlink:title="main.tsx">
<path fill="#bbfeff" stroke="black" d="M811.08,-485.5C811.08,-485.5 768.92,-485.5 768.92,-485.5 765.96,-485.5 763,-482.54 763,-479.58 763,-479.58 763,-473.67 763,-473.67 763,-470.71 765.96,-467.75 768.92,-467.75 768.92,-467.75 811.08,-467.75 811.08,-467.75 814.04,-467.75 817,-470.71 817,-473.67 817,-473.67 817,-479.58 817,-479.58 817,-482.54 814.04,-485.5 811.08,-485.5"/>
<text text-anchor="start" x="773.12" y="-472.95" font-family="Helvetica,sans-Serif" font-size="9.00">main.tsx</text>
</a>
</g>
</g>
<!-- src/pages/layouts/main/index.ts&#45;&gt;src/pages/layouts/main/main.tsx -->
<g id="edge24" class="edge">
<title>src/pages/layouts/main/index.ts&#45;&gt;src/pages/layouts/main/main.tsx</title>
<path fill="none" stroke="#000000" stroke-width="2" stroke-opacity="0.200000" d="M782,-544.53C783.44,-532.49 786.13,-509.98 787.99,-494.41"/>
<polygon fill="#000000" fill-opacity="0.200000" stroke="#000000" stroke-width="2" stroke-opacity="0.200000" points="790.4,-494.98 789.03,-488.77 786.23,-494.48 790.4,-494.98"/>
</g>
<!-- src/pages/layouts/main/styles.module.css -->
<g id="node23" class="node">
<title>src/pages/layouts/main/styles.module.css</title>
<g id="a_node23"><a xlink:href="src/pages/layouts/main/styles.module.css" xlink:title="styles.module.css">
<path fill="#ffffcc" stroke="black" d="M828.08,-434C828.08,-434 751.92,-434 751.92,-434 748.96,-434 746,-431.04 746,-428.08 746,-428.08 746,-422.17 746,-422.17 746,-419.21 748.96,-416.25 751.92,-416.25 751.92,-416.25 828.08,-416.25 828.08,-416.25 831.04,-416.25 834,-419.21 834,-422.17 834,-422.17 834,-428.08 834,-428.08 834,-431.04 831.04,-434 828.08,-434"/>
<text text-anchor="start" x="754" y="-421.45" font-family="Helvetica,sans-Serif" font-size="9.00">styles.module.css</text>
</a>
</g>
</g>
<!-- src/pages/layouts/main/main.tsx&#45;&gt;src/pages/layouts/main/styles.module.css -->
<g id="edge25" class="edge">
<title>src/pages/layouts/main/main.tsx&#45;&gt;src/pages/layouts/main/styles.module.css</title>
<path fill="none" stroke="#000000" stroke-width="2" stroke-opacity="0.200000" d="M790,-467.45C790,-460.9 790,-451.48 790,-443.28"/>
<polygon fill="#000000" fill-opacity="0.200000" stroke="#000000" stroke-width="2" stroke-opacity="0.200000" points="792.1,-443.48 790,-437.48 787.9,-443.48 792.1,-443.48"/>
</g>
<!-- src/shared/ui/container/index.tsx -->
<g id="node24" class="node">
<title>src/shared/ui/container/index.tsx</title>
<g id="a_node24"><a xlink:href="src/shared/ui/container/index.tsx" xlink:title="index.tsx">
<path fill="#bbfeff" stroke="black" d="M704.08,-175C704.08,-175 661.92,-175 661.92,-175 658.96,-175 656,-172.04 656,-169.08 656,-169.08 656,-163.17 656,-163.17 656,-160.21 658.96,-157.25 661.92,-157.25 661.92,-157.25 704.08,-157.25 704.08,-157.25 707.04,-157.25 710,-160.21 710,-163.17 710,-163.17 710,-169.08 710,-169.08 710,-172.04 707.04,-175 704.08,-175"/>
<text text-anchor="start" x="665" y="-162.45" font-family="Helvetica,sans-Serif" font-size="9.00">index.tsx</text>
</a>
</g>
</g>
<!-- src/pages/layouts/main/main.tsx&#45;&gt;src/shared/ui/container/index.tsx -->
<g id="edge26" class="edge">
<title>src/pages/layouts/main/main.tsx&#45;&gt;src/shared/ui/container/index.tsx</title>
<path fill="none" stroke="#000000" stroke-width="2" stroke-opacity="0.200000" d="M817.26,-473.01C835.36,-470.67 856.88,-466.55 863,-459.75 890.33,-429.38 873,-409.23 873,-368.38 873,-368.38 873,-368.38 873,-298.88 873,-229.06 775.65,-298.1 723,-252.25 702.35,-234.27 691.59,-203.33 686.63,-184.11"/>
<polygon fill="#000000" fill-opacity="0.200000" stroke="#000000" stroke-width="2" stroke-opacity="0.200000" points="688.01,-182.85 684.58,-177.5 683.92,-183.82 688.01,-182.85"/>
</g>
<!-- src/shared/ui/container/container.tsx -->
<g id="node43" class="node">
<title>src/shared/ui/container/container.tsx</title>
<g id="a_node43"><a xlink:href="src/shared/ui/container/container.tsx" xlink:title="container.tsx">
<path fill="#bbfeff" stroke="black" d="M659.96,-99.5C659.96,-99.5 604.04,-99.5 604.04,-99.5 601.08,-99.5 598.12,-96.54 598.12,-93.58 598.12,-93.58 598.12,-87.67 598.12,-87.67 598.12,-84.71 601.08,-81.75 604.04,-81.75 604.04,-81.75 659.96,-81.75 659.96,-81.75 662.92,-81.75 665.88,-84.71 665.88,-87.67 665.88,-87.67 665.88,-93.58 665.88,-93.58 665.88,-96.54 662.92,-99.5 659.96,-99.5"/>
<text text-anchor="start" x="606.12" y="-86.95" font-family="Helvetica,sans-Serif" font-size="9.00">container.tsx</text>
</a>
</g>
</g>
<!-- src/shared/ui/container/index.tsx&#45;&gt;src/shared/ui/container/container.tsx -->
<g id="edge48" class="edge">
<title>src/shared/ui/container/index.tsx&#45;&gt;src/shared/ui/container/container.tsx</title>
<path fill="none" stroke="#000000" stroke-width="2" stroke-opacity="0.200000" d="M677.35,-156.98C668.95,-144.88 653.06,-121.97 642.49,-106.75"/>
<polygon fill="#000000" fill-opacity="0.200000" stroke="#000000" stroke-width="2" stroke-opacity="0.200000" points="643.67,-105.32 638.52,-101.58 640.22,-107.71 643.67,-105.32"/>
</g>
<!-- src/pages/welcome/ui/page.tsx -->
<g id="node27" class="node">
<title>src/pages/welcome/ui/page.tsx</title>
<g id="a_node27"><a xlink:href="src/pages/welcome/ui/page.tsx" xlink:title="page.tsx">
<path fill="#bbfeff" stroke="black" d="M502.08,-640C502.08,-640 459.92,-640 459.92,-640 456.96,-640 454,-637.04 454,-634.08 454,-634.08 454,-628.17 454,-628.17 454,-625.21 456.96,-622.25 459.92,-622.25 459.92,-622.25 502.08,-622.25 502.08,-622.25 505.04,-622.25 508,-625.21 508,-628.17 508,-628.17 508,-634.08 508,-634.08 508,-637.04 505.04,-640 502.08,-640"/>
<text text-anchor="start" x="463.75" y="-627.45" font-family="Helvetica,sans-Serif" font-size="9.00">page.tsx</text>
</a>
</g>
</g>
<!-- src/pages/welcome/index.ts&#45;&gt;src/pages/welcome/ui/page.tsx -->
<g id="edge29" class="edge">
<title>src/pages/welcome/index.ts&#45;&gt;src/pages/welcome/ui/page.tsx</title>
<path fill="none" stroke="#000000" stroke-width="2" stroke-opacity="0.200000" d="M566.99,-673.45C550.47,-665.51 525.17,-653.35 506.29,-644.28"/>
<polygon fill="#000000" fill-opacity="0.200000" stroke="#000000" stroke-width="2" stroke-opacity="0.200000" points="506.7,-642.18 500.38,-641.48 504.88,-645.97 506.7,-642.18"/>
</g>
<!-- src/pages/welcome/ui/page.tsx&#45;&gt;src/entities/users/index.ts -->
<g id="edge37" class="edge">
<title>src/pages/welcome/ui/page.tsx&#45;&gt;src/entities/users/index.ts</title>
<path fill="none" stroke="#000000" stroke-width="2" stroke-opacity="0.200000" d="M453.51,-628.69C428.12,-626.87 389.52,-622.87 357,-614.25 313.18,-602.63 264.99,-580.76 236.95,-567.06"/>
<polygon fill="#000000" fill-opacity="0.200000" stroke="#000000" stroke-width="2" stroke-opacity="0.200000" points="237.24,-564.86 230.93,-564.08 235.37,-568.63 237.24,-564.86"/>
</g>
<!-- src/pages/welcome/ui/page.tsx&#45;&gt;src/pages/layouts/main/index.ts -->
<g id="edge38" class="edge">
<title>src/pages/welcome/ui/page.tsx&#45;&gt;src/pages/layouts/main/index.ts</title>
<path fill="none" stroke="#000000" stroke-width="2" stroke-opacity="0.200000" d="M508.35,-626.77C528.55,-624.05 556.66,-619.77 581,-614.25 640.77,-600.7 708.9,-579.12 748.23,-566.05"/>
<polygon fill="#000000" fill-opacity="0.200000" stroke="#000000" stroke-width="2" stroke-opacity="0.200000" points="749.62,-567.13 754.64,-563.24 748.29,-563.15 749.62,-567.13"/>
</g>
<!-- src/pages/welcome/ui/page.tsx&#45;&gt;src/shared/ui/container/index.tsx -->
<g id="edge39" class="edge">
<title>src/pages/welcome/ui/page.tsx&#45;&gt;src/shared/ui/container/index.tsx</title>
<path fill="none" stroke="#000000" stroke-width="2" stroke-opacity="0.200000" d="M453.58,-630.18C423.59,-629.61 378.26,-626.63 367,-614.25 326.1,-569.29 361,-538.41 361,-477.62 361,-477.62 361,-477.62 361,-298.88 361,-233.82 599.44,-293.18 650,-252.25 670.76,-235.44 678.49,-203.87 681.35,-184.26"/>
<polygon fill="#000000" fill-opacity="0.200000" stroke="#000000" stroke-width="2" stroke-opacity="0.200000" points="683.78,-184.68 682.42,-178.47 679.61,-184.18 683.78,-184.68"/>
</g>
<!-- src/pages/welcome/ui/counter/index.ts -->
<g id="node33" class="node">
<title>src/pages/welcome/ui/counter/index.ts</title>
<g id="a_node33"><a xlink:href="src/pages/welcome/ui/counter/index.ts" xlink:title="index.ts">
<path fill="#ddfeff" stroke="black" d="M458.08,-562.75C458.08,-562.75 415.92,-562.75 415.92,-562.75 412.96,-562.75 410,-559.79 410,-556.83 410,-556.83 410,-550.92 410,-550.92 410,-547.96 412.96,-545 415.92,-545 415.92,-545 458.08,-545 458.08,-545 461.04,-545 464,-547.96 464,-550.92 464,-550.92 464,-556.83 464,-556.83 464,-559.79 461.04,-562.75 458.08,-562.75"/>
<text text-anchor="start" x="421.25" y="-550.2" font-family="Helvetica,sans-Serif" font-size="9.00">index.ts</text>
</a>
</g>
</g>
<!-- src/pages/welcome/ui/page.tsx&#45;&gt;src/pages/welcome/ui/counter/index.ts -->
<g id="edge35" class="edge">
<title>src/pages/welcome/ui/page.tsx&#45;&gt;src/pages/welcome/ui/counter/index.ts</title>
<path fill="none" stroke="#000000" stroke-width="2" stroke-opacity="0.200000" d="M473.78,-621.97C471.8,-619.56 469.73,-616.87 468,-614.25 458.82,-600.35 450.21,-583.42 444.4,-571.2"/>
<polygon fill="#000000" fill-opacity="0.200000" stroke="#000000" stroke-width="2" stroke-opacity="0.200000" points="446.14,-569.8 441.7,-565.24 442.33,-571.57 446.14,-569.8"/>
</g>
<!-- src/pages/welcome/ui/styles.module.css -->
<g id="node34" class="node">
<title>src/pages/welcome/ui/styles.module.css</title>
<g id="a_node34"><a xlink:href="src/pages/welcome/ui/styles.module.css" xlink:title="styles.module.css">
<path fill="#ffffcc" stroke="black" d="M564.08,-562.75C564.08,-562.75 487.92,-562.75 487.92,-562.75 484.96,-562.75 482,-559.79 482,-556.83 482,-556.83 482,-550.92 482,-550.92 482,-547.96 484.96,-545 487.92,-545 487.92,-545 564.08,-545 564.08,-545 567.04,-545 570,-547.96 570,-550.92 570,-550.92 570,-556.83 570,-556.83 570,-559.79 567.04,-562.75 564.08,-562.75"/>
<text text-anchor="start" x="490" y="-550.2" font-family="Helvetica,sans-Serif" font-size="9.00">styles.module.css</text>
</a>
</g>
</g>
<!-- src/pages/welcome/ui/page.tsx&#45;&gt;src/pages/welcome/ui/styles.module.css -->
<g id="edge36" class="edge">
<title>src/pages/welcome/ui/page.tsx&#45;&gt;src/pages/welcome/ui/styles.module.css</title>
<path fill="none" stroke="#000000" stroke-width="2" stroke-opacity="0.200000" d="M485.99,-621.78C493.39,-609.4 507.42,-585.94 516.74,-570.36"/>
<polygon fill="#000000" fill-opacity="0.200000" stroke="#000000" stroke-width="2" stroke-opacity="0.200000" points="518.85,-571.25 520.13,-565.02 515.24,-569.1 518.85,-571.25"/>
</g>
<!-- src/pages/welcome/lib/use&#45;counter/use&#45;counter.spec.ts -->
<g id="node28" class="node">
<title>src/pages/welcome/lib/use&#45;counter/use&#45;counter.spec.ts</title>
<g id="a_node28"><a xlink:href="src/pages/welcome/lib/use-counter/use-counter.spec.ts" xlink:title="use&#45;counter.spec.ts">
<path fill="#ddfeff" stroke="black" d="M691.83,-485.5C691.83,-485.5 608.17,-485.5 608.17,-485.5 605.21,-485.5 602.25,-482.54 602.25,-479.58 602.25,-479.58 602.25,-473.67 602.25,-473.67 602.25,-470.71 605.21,-467.75 608.17,-467.75 608.17,-467.75 691.83,-467.75 691.83,-467.75 694.79,-467.75 697.75,-470.71 697.75,-473.67 697.75,-473.67 697.75,-479.58 697.75,-479.58 697.75,-482.54 694.79,-485.5 691.83,-485.5"/>
<text text-anchor="start" x="610.25" y="-472.95" font-family="Helvetica,sans-Serif" font-size="9.00">use&#45;counter.spec.ts</text>
</a>
</g>
</g>
<!-- src/pages/welcome/lib/use&#45;counter/use&#45;counter.ts -->
<g id="node29" class="node">
<title>src/pages/welcome/lib/use&#45;counter/use&#45;counter.ts</title>
<g id="a_node29"><a xlink:href="src/pages/welcome/lib/use-counter/use-counter.ts" xlink:title="use&#45;counter.ts">
<path fill="#ddfeff" stroke="black" d="M674.96,-434C674.96,-434 613.04,-434 613.04,-434 610.08,-434 607.12,-431.04 607.12,-428.08 607.12,-428.08 607.12,-422.17 607.12,-422.17 607.12,-419.21 610.08,-416.25 613.04,-416.25 613.04,-416.25 674.96,-416.25 674.96,-416.25 677.92,-416.25 680.88,-419.21 680.88,-422.17 680.88,-422.17 680.88,-428.08 680.88,-428.08 680.88,-431.04 677.92,-434 674.96,-434"/>
<text text-anchor="start" x="615.12" y="-421.45" font-family="Helvetica,sans-Serif" font-size="9.00">use&#45;counter.ts</text>
</a>
</g>
</g>
<!-- src/pages/welcome/lib/use&#45;counter/use&#45;counter.spec.ts&#45;&gt;src/pages/welcome/lib/use&#45;counter/use&#45;counter.ts -->
<g id="edge30" class="edge">
<title>src/pages/welcome/lib/use&#45;counter/use&#45;counter.spec.ts&#45;&gt;src/pages/welcome/lib/use&#45;counter/use&#45;counter.ts</title>
<path fill="none" stroke="#000000" stroke-width="2" stroke-opacity="0.200000" d="M649.01,-467.45C648.21,-460.9 647.07,-451.48 646.08,-443.28"/>
<polygon fill="#000000" fill-opacity="0.200000" stroke="#000000" stroke-width="2" stroke-opacity="0.200000" points="647.82,-443.18 645.01,-437.48 643.65,-443.69 647.82,-443.18"/>
</g>
<!-- src/pages/welcome/ui/counter/counter.tsx -->
<g id="node30" class="node">
<title>src/pages/welcome/ui/counter/counter.tsx</title>
<g id="a_node30"><a xlink:href="src/pages/welcome/ui/counter/counter.tsx" xlink:title="counter.tsx">
<path fill="#bbfeff" stroke="black" d="M460.21,-485.5C460.21,-485.5 411.79,-485.5 411.79,-485.5 408.83,-485.5 405.88,-482.54 405.88,-479.58 405.88,-479.58 405.88,-473.67 405.88,-473.67 405.88,-470.71 408.83,-467.75 411.79,-467.75 411.79,-467.75 460.21,-467.75 460.21,-467.75 463.17,-467.75 466.12,-470.71 466.12,-473.67 466.12,-473.67 466.12,-479.58 466.12,-479.58 466.12,-482.54 463.17,-485.5 460.21,-485.5"/>
<text text-anchor="start" x="413.88" y="-472.95" font-family="Helvetica,sans-Serif" font-size="9.00">counter.tsx</text>
</a>
</g>
</g>
<!-- src/pages/welcome/ui/counter/counter.tsx&#45;&gt;src/pages/welcome/lib/use&#45;counter/use&#45;counter.ts -->
<g id="edge31" class="edge">
<title>src/pages/welcome/ui/counter/counter.tsx&#45;&gt;src/pages/welcome/lib/use&#45;counter/use&#45;counter.ts</title>
<path fill="none" stroke="#000000" stroke-width="2" stroke-opacity="0.200000" d="M466.24,-468.43C501.51,-460.03 560.1,-446.09 600.31,-436.52"/>
<polygon fill="#000000" fill-opacity="0.200000" stroke="#000000" stroke-width="2" stroke-opacity="0.200000" points="601.5,-437.92 606.85,-434.49 600.52,-433.84 601.5,-437.92"/>
</g>
<!-- src/pages/welcome/ui/counter/styles.module.css -->
<g id="node31" class="node">
<title>src/pages/welcome/ui/counter/styles.module.css</title>
<g id="a_node31"><a xlink:href="src/pages/welcome/ui/counter/styles.module.css" xlink:title="styles.module.css">
<path fill="#ffffcc" stroke="black" d="M460.08,-434C460.08,-434 383.92,-434 383.92,-434 380.96,-434 378,-431.04 378,-428.08 378,-428.08 378,-422.17 378,-422.17 378,-419.21 380.96,-416.25 383.92,-416.25 383.92,-416.25 460.08,-416.25 460.08,-416.25 463.04,-416.25 466,-419.21 466,-422.17 466,-422.17 466,-428.08 466,-428.08 466,-431.04 463.04,-434 460.08,-434"/>
<text text-anchor="start" x="386" y="-421.45" font-family="Helvetica,sans-Serif" font-size="9.00">styles.module.css</text>
</a>
</g>
</g>
<!-- src/pages/welcome/ui/counter/counter.tsx&#45;&gt;src/pages/welcome/ui/counter/styles.module.css -->
<g id="edge32" class="edge">
<title>src/pages/welcome/ui/counter/counter.tsx&#45;&gt;src/pages/welcome/ui/counter/styles.module.css</title>
<path fill="none" stroke="#000000" stroke-width="2" stroke-opacity="0.200000" d="M433.69,-467.45C431.81,-460.83 429.11,-451.27 426.78,-443.02"/>
<polygon fill="#000000" fill-opacity="0.200000" stroke="#000000" stroke-width="2" stroke-opacity="0.200000" points="428.02,-441.68 424.36,-436.48 423.97,-442.82 428.02,-441.68"/>
</g>
<!-- src/shared/ui/button/index.tsx -->
<g id="node32" class="node">
<title>src/shared/ui/button/index.tsx</title>
<g id="a_node32"><a xlink:href="src/shared/ui/button/index.tsx" xlink:title="index.tsx">
<path fill="#bbfeff" stroke="black" d="M870.08,-175C870.08,-175 827.92,-175 827.92,-175 824.96,-175 822,-172.04 822,-169.08 822,-169.08 822,-163.17 822,-163.17 822,-160.21 824.96,-157.25 827.92,-157.25 827.92,-157.25 870.08,-157.25 870.08,-157.25 873.04,-157.25 876,-160.21 876,-163.17 876,-163.17 876,-169.08 876,-169.08 876,-172.04 873.04,-175 870.08,-175"/>
<text text-anchor="start" x="831" y="-162.45" font-family="Helvetica,sans-Serif" font-size="9.00">index.tsx</text>
</a>
</g>
</g>
<!-- src/pages/welcome/ui/counter/counter.tsx&#45;&gt;src/shared/ui/button/index.tsx -->
<g id="edge33" class="edge">
<title>src/pages/welcome/ui/counter/counter.tsx&#45;&gt;src/shared/ui/button/index.tsx</title>
<path fill="none" stroke="#000000" stroke-width="2" stroke-opacity="0.200000" d="M466.58,-473.9C497.84,-472.17 547.79,-469.53 591,-467.75 605.11,-467.17 834.43,-469.11 845,-459.75 875.75,-432.5 859,-409.46 859,-368.38 859,-368.38 859,-368.38 859,-298.88 859,-257.56 854.05,-209.17 851.12,-184.11"/>
<polygon fill="#000000" fill-opacity="0.200000" stroke="#000000" stroke-width="2" stroke-opacity="0.200000" points="852.87,-184.14 850.07,-178.43 848.7,-184.64 852.87,-184.14"/>
</g>
<!-- src/shared/ui/button/button.tsx -->
<g id="node40" class="node">
<title>src/shared/ui/button/button.tsx</title>
<g id="a_node40"><a xlink:href="src/shared/ui/button/button.tsx" xlink:title="button.tsx">
<path fill="#bbfeff" stroke="black" d="M826.58,-99.5C826.58,-99.5 783.42,-99.5 783.42,-99.5 780.46,-99.5 777.5,-96.54 777.5,-93.58 777.5,-93.58 777.5,-87.67 777.5,-87.67 777.5,-84.71 780.46,-81.75 783.42,-81.75 783.42,-81.75 826.58,-81.75 826.58,-81.75 829.54,-81.75 832.5,-84.71 832.5,-87.67 832.5,-87.67 832.5,-93.58 832.5,-93.58 832.5,-96.54 829.54,-99.5 826.58,-99.5"/>
<text text-anchor="start" x="785.5" y="-86.95" font-family="Helvetica,sans-Serif" font-size="9.00">button.tsx</text>
</a>
</g>
</g>
<!-- src/shared/ui/button/index.tsx&#45;&gt;src/shared/ui/button/button.tsx -->
<g id="edge45" class="edge">
<title>src/shared/ui/button/index.tsx&#45;&gt;src/shared/ui/button/button.tsx</title>
<path fill="none" stroke="#000000" stroke-width="2" stroke-opacity="0.200000" d="M844.12,-156.98C836.95,-144.99 823.42,-122.39 814.3,-107.17"/>
<polygon fill="#000000" fill-opacity="0.200000" stroke="#000000" stroke-width="2" stroke-opacity="0.200000" points="815.65,-105.65 810.76,-101.58 812.05,-107.81 815.65,-105.65"/>
</g>
<!-- src/pages/welcome/ui/counter/index.ts&#45;&gt;src/pages/welcome/ui/counter/counter.tsx -->
<g id="edge34" class="edge">
<title>src/pages/welcome/ui/counter/index.ts&#45;&gt;src/pages/welcome/ui/counter/counter.tsx</title>
<path fill="none" stroke="#000000" stroke-width="2" stroke-opacity="0.200000" d="M436.89,-544.53C436.73,-532.49 436.43,-509.98 436.22,-494.41"/>
<polygon fill="#000000" fill-opacity="0.200000" stroke="#000000" stroke-width="2" stroke-opacity="0.200000" points="438.29,-494.75 436.11,-488.77 434.09,-494.8 438.29,-494.75"/>
</g>
<!-- src/shared/lib/testing/index.ts -->
<g id="node35" class="node">
<title>src/shared/lib/testing/index.ts</title>
<g id="a_node35"><a xlink:href="src/shared/lib/testing/index.ts" xlink:title="index.ts">
<path fill="#ddfeff" stroke="black" d="M1043.08,-175C1043.08,-175 1000.92,-175 1000.92,-175 997.96,-175 995,-172.04 995,-169.08 995,-169.08 995,-163.17 995,-163.17 995,-160.21 997.96,-157.25 1000.92,-157.25 1000.92,-157.25 1043.08,-157.25 1043.08,-157.25 1046.04,-157.25 1049,-160.21 1049,-163.17 1049,-163.17 1049,-169.08 1049,-169.08 1049,-172.04 1046.04,-175 1043.08,-175"/>
<text text-anchor="start" x="1006.25" y="-162.45" font-family="Helvetica,sans-Serif" font-size="9.00">index.ts</text>
</a>
</g>
</g>
<!-- src/shared/lib/testing/render.tsx -->
<g id="node36" class="node">
<title>src/shared/lib/testing/render.tsx</title>
<g id="a_node36"><a xlink:href="src/shared/lib/testing/render.tsx" xlink:title="render.tsx">
<path fill="#bbfeff" stroke="black" d="M1044.33,-99.5C1044.33,-99.5 999.67,-99.5 999.67,-99.5 996.71,-99.5 993.75,-96.54 993.75,-93.58 993.75,-93.58 993.75,-87.67 993.75,-87.67 993.75,-84.71 996.71,-81.75 999.67,-81.75 999.67,-81.75 1044.33,-81.75 1044.33,-81.75 1047.29,-81.75 1050.25,-84.71 1050.25,-87.67 1050.25,-87.67 1050.25,-93.58 1050.25,-93.58 1050.25,-96.54 1047.29,-99.5 1044.33,-99.5"/>
<text text-anchor="start" x="1001.75" y="-86.95" font-family="Helvetica,sans-Serif" font-size="9.00">render.tsx</text>
</a>
</g>
</g>
<!-- src/shared/lib/testing/index.ts&#45;&gt;src/shared/lib/testing/render.tsx -->
<g id="edge41" class="edge">
<title>src/shared/lib/testing/index.ts&#45;&gt;src/shared/lib/testing/render.tsx</title>
<path fill="none" stroke="#000000" stroke-width="2" stroke-opacity="0.200000" d="M1022,-156.98C1022,-145.33 1022,-123.64 1022,-108.45"/>
<polygon fill="#000000" fill-opacity="0.200000" stroke="#000000" stroke-width="2" stroke-opacity="0.200000" points="1024.1,-108.58 1022,-102.58 1019.9,-108.58 1024.1,-108.58"/>
</g>
<!-- src/shared/lib/validation/email.ts -->
<g id="node37" class="node">
<title>src/shared/lib/validation/email.ts</title>
<g id="a_node37"><a xlink:href="src/shared/lib/validation/email.ts" xlink:title="email.ts">
<path fill="#ddfeff" stroke="black" d="M964.08,-99.5C964.08,-99.5 921.92,-99.5 921.92,-99.5 918.96,-99.5 916,-96.54 916,-93.58 916,-93.58 916,-87.67 916,-87.67 916,-84.71 918.96,-81.75 921.92,-81.75 921.92,-81.75 964.08,-81.75 964.08,-81.75 967.04,-81.75 970,-84.71 970,-87.67 970,-87.67 970,-93.58 970,-93.58 970,-96.54 967.04,-99.5 964.08,-99.5"/>
<text text-anchor="start" x="927.25" y="-86.95" font-family="Helvetica,sans-Serif" font-size="9.00">email.ts</text>
</a>
</g>
</g>
<!-- src/shared/lib/validation/index.ts -->
<g id="node38" class="node">
<title>src/shared/lib/validation/index.ts</title>
<g id="a_node38"><a xlink:href="src/shared/lib/validation/index.ts" xlink:title="index.ts">
<path fill="#ddfeff" stroke="black" d="M964.08,-175C964.08,-175 921.92,-175 921.92,-175 918.96,-175 916,-172.04 916,-169.08 916,-169.08 916,-163.17 916,-163.17 916,-160.21 918.96,-157.25 921.92,-157.25 921.92,-157.25 964.08,-157.25 964.08,-157.25 967.04,-157.25 970,-160.21 970,-163.17 970,-163.17 970,-169.08 970,-169.08 970,-172.04 967.04,-175 964.08,-175"/>
<text text-anchor="start" x="927.25" y="-162.45" font-family="Helvetica,sans-Serif" font-size="9.00">index.ts</text>
</a>
</g>
</g>
<!-- src/shared/lib/validation/index.ts&#45;&gt;src/shared/lib/validation/email.ts -->
<g id="edge42" class="edge">
<title>src/shared/lib/validation/index.ts&#45;&gt;src/shared/lib/validation/email.ts</title>
<path fill="none" stroke="#000000" stroke-width="2" stroke-opacity="0.200000" d="M943,-156.98C943,-145.33 943,-123.64 943,-108.45"/>
<polygon fill="#000000" fill-opacity="0.200000" stroke="#000000" stroke-width="2" stroke-opacity="0.200000" points="945.1,-108.58 943,-102.58 940.9,-108.58 945.1,-108.58"/>
</g>
<!-- src/shared/ui/button/button.spec.tsx -->
<g id="node39" class="node">
<title>src/shared/ui/button/button.spec.tsx</title>
<g id="a_node39"><a xlink:href="src/shared/ui/button/button.spec.tsx" xlink:title="button.spec.tsx">
<path fill="#bbfeff" stroke="black" d="M804.46,-175C804.46,-175 739.54,-175 739.54,-175 736.58,-175 733.62,-172.04 733.62,-169.08 733.62,-169.08 733.62,-163.17 733.62,-163.17 733.62,-160.21 736.58,-157.25 739.54,-157.25 739.54,-157.25 804.46,-157.25 804.46,-157.25 807.42,-157.25 810.38,-160.21 810.38,-163.17 810.38,-163.17 810.38,-169.08 810.38,-169.08 810.38,-172.04 807.42,-175 804.46,-175"/>
<text text-anchor="start" x="741.62" y="-162.45" font-family="Helvetica,sans-Serif" font-size="9.00">button.spec.tsx</text>
</a>
</g>
</g>
<!-- src/shared/ui/button/button.spec.tsx&#45;&gt;src/shared/ui/button/button.tsx -->
<g id="edge43" class="edge">
<title>src/shared/ui/button/button.spec.tsx&#45;&gt;src/shared/ui/button/button.tsx</title>
<path fill="none" stroke="#000000" stroke-width="2" stroke-opacity="0.200000" d="M775.66,-156.98C780.99,-145.11 791,-122.81 797.83,-107.59"/>
<polygon fill="#000000" fill-opacity="0.200000" stroke="#000000" stroke-width="2" stroke-opacity="0.200000" points="799.88,-107.92 800.43,-101.58 796.05,-106.2 799.88,-107.92"/>
</g>
<!-- src/shared/ui/button/styles.module.css -->
<g id="node41" class="node">
<title>src/shared/ui/button/styles.module.css</title>
<g id="a_node41"><a xlink:href="src/shared/ui/button/styles.module.css" xlink:title="styles.module.css">
<path fill="#ffffcc" stroke="black" d="M843.08,-57.75C843.08,-57.75 766.92,-57.75 766.92,-57.75 763.96,-57.75 761,-54.79 761,-51.83 761,-51.83 761,-45.92 761,-45.92 761,-42.96 763.96,-40 766.92,-40 766.92,-40 843.08,-40 843.08,-40 846.04,-40 849,-42.96 849,-45.92 849,-45.92 849,-51.83 849,-51.83 849,-54.79 846.04,-57.75 843.08,-57.75"/>
<text text-anchor="start" x="769" y="-45.2" font-family="Helvetica,sans-Serif" font-size="9.00">styles.module.css</text>
</a>
</g>
</g>
<!-- src/shared/ui/button/button.tsx&#45;&gt;src/shared/ui/button/styles.module.css -->
<g id="edge44" class="edge">
<title>src/shared/ui/button/button.tsx&#45;&gt;src/shared/ui/button/styles.module.css</title>
<path fill="none" stroke="#000000" stroke-width="2" stroke-opacity="0.200000" d="M805,-81.58C805,-77.33 805,-71.94 805,-66.81"/>
<polygon fill="#000000" fill-opacity="0.200000" stroke="#000000" stroke-width="2" stroke-opacity="0.200000" points="807.1,-67.18 805,-61.18 802.9,-67.18 807.1,-67.18"/>
</g>
<!-- src/shared/ui/container/container.spec.tsx -->
<g id="node42" class="node">
<title>src/shared/ui/container/container.spec.tsx</title>
<g id="a_node42"><a xlink:href="src/shared/ui/container/container.spec.tsx" xlink:title="container.spec.tsx">
<path fill="#bbfeff" stroke="black" d="M637.83,-175C637.83,-175 560.17,-175 560.17,-175 557.21,-175 554.25,-172.04 554.25,-169.08 554.25,-169.08 554.25,-163.17 554.25,-163.17 554.25,-160.21 557.21,-157.25 560.17,-157.25 560.17,-157.25 637.83,-157.25 637.83,-157.25 640.79,-157.25 643.75,-160.21 643.75,-163.17 643.75,-163.17 643.75,-169.08 643.75,-169.08 643.75,-172.04 640.79,-175 637.83,-175"/>
<text text-anchor="start" x="562.25" y="-162.45" font-family="Helvetica,sans-Serif" font-size="9.00">container.spec.tsx</text>
</a>
</g>
</g>
<!-- src/shared/ui/container/container.spec.tsx&#45;&gt;src/shared/ui/container/container.tsx -->
<g id="edge46" class="edge">
<title>src/shared/ui/container/container.spec.tsx&#45;&gt;src/shared/ui/container/container.tsx</title>
<path fill="none" stroke="#000000" stroke-width="2" stroke-opacity="0.200000" d="M602.66,-156.98C607.99,-145.11 618,-122.81 624.83,-107.59"/>
<polygon fill="#000000" fill-opacity="0.200000" stroke="#000000" stroke-width="2" stroke-opacity="0.200000" points="626.88,-107.92 627.43,-101.58 623.05,-106.2 626.88,-107.92"/>
</g>
<!-- src/shared/ui/container/styles.module.css -->
<g id="node44" class="node">
<title>src/shared/ui/container/styles.module.css</title>
<g id="a_node44"><a xlink:href="src/shared/ui/container/styles.module.css" xlink:title="styles.module.css">
<path fill="#ffffcc" stroke="black" d="M670.08,-57.75C670.08,-57.75 593.92,-57.75 593.92,-57.75 590.96,-57.75 588,-54.79 588,-51.83 588,-51.83 588,-45.92 588,-45.92 588,-42.96 590.96,-40 593.92,-40 593.92,-40 670.08,-40 670.08,-40 673.04,-40 676,-42.96 676,-45.92 676,-45.92 676,-51.83 676,-51.83 676,-54.79 673.04,-57.75 670.08,-57.75"/>
<text text-anchor="start" x="596" y="-45.2" font-family="Helvetica,sans-Serif" font-size="9.00">styles.module.css</text>
</a>
</g>
</g>
<!-- src/shared/ui/container/container.tsx&#45;&gt;src/shared/ui/container/styles.module.css -->
<g id="edge47" class="edge">
<title>src/shared/ui/container/container.tsx&#45;&gt;src/shared/ui/container/styles.module.css</title>
<path fill="none" stroke="#000000" stroke-width="2" stroke-opacity="0.200000" d="M632,-81.58C632,-77.33 632,-71.94 632,-66.81"/>
<polygon fill="#000000" fill-opacity="0.200000" stroke="#000000" stroke-width="2" stroke-opacity="0.200000" points="634.1,-67.18 632,-61.18 629.9,-67.18 634.1,-67.18"/>
</g>
</g>
</svg>
